<?xml version="1.0" encoding="UTF-8" standalone="no"?>
<!DOCTYPE svg PUBLIC "-//W3C//DTD SVG 1.1//EN" "http://www.w3.org/Graphics/SVG/1.1/DTD/svg11.dtd">
<svg version="1.1" xmlns="http://www.w3.org/2000/svg" xmlns:xlink="http://www.w3.org/1999/xlink" preserveAspectRatio="xMidYMid meet" viewBox="0 0 64 64" width="64" height="64"><defs><path d="" id="f5x1EjiiC3"></path><path d="M44.24 20.38L21.55 20.38C17.6 40.12 15.13 52.46 14.14 57.4C14.07 57.76 14.34 58.09 14.71 58.09C22.12 58.09 43.5 58.09 50.88 58.09C51.33 58.09 51.66 57.68 51.58 57.25C50.6 52.33 48.15 40.04 44.24 20.38Z" id="bfpoq8u3o"></path><path d="M28.82 47.77C29.74 45.31 31.09 44.07 32.86 44.07C34.63 44.07 35.98 45.31 36.9 47.77L36.9 60.36L28.82 60.36L28.82 47.77Z" id="c3yGKw8J1"></path><path d="M48.91 18.62C48.91 13.35 48.91 10.05 48.91 8.74C48.91 8.2 48.48 7.76 47.94 7.76C47.13 7.76 45.64 7.76 44.82 7.76C44.32 7.76 43.9 8.17 43.9 8.68C43.9 9.43 43.9 10.64 43.9 11.36C43.9 11.94 43.43 12.41 42.85 12.41C42.29 12.41 41.61 12.41 41.03 12.41C40.49 12.41 40.05 11.97 40.05 11.43C40.05 10.69 40.05 9.62 40.05 8.92C40.05 8.28 39.53 7.76 38.89 7.76C38.14 7.76 36.88 7.76 36.09 7.76C35.56 7.76 35.13 8.19 35.13 8.72C35.13 9.46 35.13 10.55 35.13 11.25C35.13 11.89 34.61 12.41 33.97 12.41C33.33 12.41 32.39 12.41 31.7 12.41C31.18 12.41 30.75 11.99 30.75 11.46C30.75 10.72 30.75 9.46 30.75 8.72C30.75 8.19 30.33 7.76 29.8 7.76C29.06 7.76 28.09 7.76 27.42 7.76C26.71 7.76 26.13 8.34 26.13 9.05C26.13 9.72 26.13 10.32 26.13 10.96C26.13 11.76 25.48 12.41 24.68 12.41C24.16 12.41 23.73 12.41 23.13 12.41C22.54 12.41 22.06 11.93 22.06 11.34C22.06 10.62 22.06 9.3 22.06 8.52C22.06 8.1 21.72 7.76 21.29 7.76C20.4 7.76 18.61 7.76 17.75 7.76C17.23 7.76 16.8 8.18 16.8 8.71C16.8 10.03 16.8 13.33 16.8 18.62L48.91 18.62Z" id="a2gEbjci4"></path><path d="M16.8 16.97L44.1 18.37L48.35 16.14L48.91 18.62L44.47 23.09L21.65 23.77L16.8 18.62L16.8 16.97Z" id="a37gkSTfgy"></path><path d="M30.3 27.13C30.67 26.8 30.91 26.6 31 26.51C32.05 25.59 33.62 25.58 34.68 26.49C34.77 26.58 35.02 26.79 35.42 27.13L35.42 32.66L30.3 32.66L30.3 27.13Z" id="b3VfjybK1v"></path></defs><g><g><g><use xlink:href="#f5x1EjiiC3" opacity="1" fill="#19191d" fill-opacity="1"></use><g><use xlink:href="#f5x1EjiiC3" opacity="1" fill-opacity="0" stroke="#000000" stroke-width="1" stroke-opacity="1"></use></g></g><g><use xlink:href="#bfpoq8u3o" opacity="1" fill="#19191d" fill-opacity="1"></use></g><g><use xlink:href="#c3yGKw8J1" opacity="1" fill="#ffffff" fill-opacity="1"></use></g><g><use xlink:href="#a2gEbjci4" opacity="1" fill="#19191d" fill-opacity="1"></use></g><g><use xlink:href="#a37gkSTfgy" opacity="1" fill="#19191d" fill-opacity="1"></use></g><g><use xlink:href="#b3VfjybK1v" opacity="1" fill="#ffffff" fill-opacity="1"></use></g></g></g></svg>